<svg width="41" height="37" viewBox="0 0 41 37" fill="none" xmlns="http://www.w3.org/2000/svg">
<path d="M33.527 5.14993C29.413 -1.60435 24.2074 1.32525 23.7835 3.48733C23.4129 5.37797 24.0924 7.6384 30.0269 9.22298C32.2409 9.81412 33.5141 11.0213 34.2433 12.2765C35.1154 13.7779 33.6374 15.5556 31.9907 15.005C28.8249 13.9464 25.7337 11.6393 21.9468 14.3971" stroke="#211F1A" stroke-width="1.91667" stroke-miterlimit="10" stroke-linecap="round" stroke-linejoin="round"/>
<path d="M19.7724 18.3432C23.0872 18.5199 21.642 11.8763 21.642 11.8763C21.3043 11.3607 20.0786 10.6643 18.5465 12.6978C17.8491 10.3659 15.1633 10.2401 15.1633 10.2401C14.0866 10.7972 10.8142 12.2521 11.4828 16.2635" stroke="#211F1A" stroke-width="1.91667" stroke-miterlimit="10" stroke-linecap="round" stroke-linejoin="round"/>
<path d="M12.2523 18.9085C12.2523 18.9085 10.2206 16.3689 12.7602 15.861C15.2999 15.3531 16.3157 15.861 16.3157 15.861C16.3157 15.861 18.3475 16.3689 16.3157 18.9085C16.3157 18.9085 17.0776 21.1942 14.538 21.1942C11.9984 21.1942 12.2523 18.9085 12.2523 18.9085Z" stroke="#211F1A" stroke-width="1.91667" stroke-miterlimit="10" stroke-linecap="round" stroke-linejoin="round"/>
<path d="M16.6729 26.2425L14.4619 30.2742C14.4619 30.2742 9.18964 31.4908 7.56743 31.8964C6.34449 32.2021 3.96926 32.9688 2.87395 33.3277C2.39485 33.4847 1.86388 33.4646 1.42396 33.2182C0.67289 32.7977 0.183766 31.3544 5.32084 29.7322C9.89819 28.2867 13.1765 24.6761 13.4272 21.7094" stroke="#211F1A" stroke-width="1.91667" stroke-miterlimit="10" stroke-linecap="round" stroke-linejoin="round"/>
<path d="M22.3484 19.8229C22.3484 19.8229 27.6206 25.0952 25.9984 27.5286C24.8109 29.3098 22.9714 32.6124 22.0708 34.2545C21.738 34.8611 21.1033 35.2342 20.4115 35.2342H17.0385C15.2866 35.2342 15.1241 32.5961 16.8701 32.4527C16.9821 32.4434 17.0981 32.4383 17.2179 32.4376C17.9604 32.4331 19.9795 32.0323 20.2818 31.3541L22.3484 26.7175C22.3484 26.7175 20.4129 23.8686 18.2928 23.473" stroke="#211F1A" stroke-width="1.91667" stroke-miterlimit="10" stroke-linecap="round" stroke-linejoin="round"/>
<path d="M35.3263 18.6063C35.3263 18.6063 37.354 23.0674 29.2429 26.7175C29.2429 26.7175 29.3114 30.56 28.3717 34.0926C28.1978 34.7466 27.5461 35.1552 26.8784 35.0453L24.6472 35.0631" stroke="#211F1A" stroke-width="1.91667" stroke-miterlimit="10" stroke-linecap="round" stroke-linejoin="round"/>
<path d="M31.11 29.8856C31.7786 31.8913 35.1433 32.7061 36.4585 32.5599L36.5037 34.4236C36.5251 35.3111 37.2763 36.005 38.1626 35.9562L38.171 35.9557C38.8277 35.9195 39.5321 35.5052 39.592 34.8502C39.8014 32.5599 39.1328 29.8856 39.1328 29.8856C32.6439 28.669 32.8929 25.0952 32.8929 25.0952" stroke="#211F1A" stroke-width="1.91667" stroke-miterlimit="10" stroke-linecap="round" stroke-linejoin="round"/>
</svg>
