<svg width="44" height="40" viewBox="0 0 44 40" fill="none" xmlns="http://www.w3.org/2000/svg">
<path d="M1.24979 35.5204L1.67817 34.2352L10.6742 29.523L11.531 29.9514L12.8162 32.9501L5.10524 35.5204H1.24979Z" fill="#6A462F"/>
<path d="M26.5245 30.8082C25.2393 31.2365 23.3544 32.9501 22.669 32.9501L17.5284 35.092L16.6716 36.3772L18.3852 38.0907L23.5258 37.2339L26.5245 30.8082Z" fill="#6A462F"/>
<path d="M24.3825 37.2339H29.9515L31.2367 32.9501L25.6677 34.2352L24.3825 37.2339Z" fill="#6A462F"/>
<path d="M12.3878 32.9501L11.1026 29.9514L14.5297 24.3824H15.8149H16.6716H18.8135L22.2406 20.0986L23.5258 16.6715L24.8109 14.5296L28.6664 14.1012L34.2354 16.2431L38.0908 20.0986V22.2405L35.0921 26.9527L37.6625 30.3798L39.8044 31.6649L39.376 35.5204L35.0921 33.8069L33.3786 32.5217L31.2367 33.3785L25.6677 34.6636L27.8096 29.9514L21.8122 33.8069L23.5258 28.2379L20.0987 25.6676L19.6703 26.096L17.9568 27.8095L15.3865 32.5217L12.3878 32.9501Z" fill="#222226"/>
<path d="M39.376 32.0933H40.6611L42.3747 32.9501L43.2314 35.9488L41.9463 38.5191L39.376 38.0907V35.092V32.0933Z" fill="#6A462F"/>
<path d="M21.3839 21.3837L20.9555 25.2392L17.1 28.2379L14.9581 24.3824H16.2433L19.6703 24.8108V24.3824L20.0987 22.6689L21.3839 21.3837Z" fill="#E2E2E2"/>
<path d="M38.4489 12.3445C37.5327 10.599 35.9238 9.54897 34.8181 8.9984C34.2219 8.70144 33.5834 8.51489 32.9326 8.37284C30.7541 7.89739 29.2418 6.93851 28.4463 6.32159C27.9391 5.92832 27.5727 5.35219 27.5166 4.71291C27.4021 3.40663 28.4956 2.92901 30.4936 3.15011C32.2205 3.3413 33.3519 4.68083 33.8727 5.46165C34.2378 6.00932 34.6647 6.59568 35.263 6.87021C36.8542 7.60044 36.9869 5.358 36.9869 5.358L35.8074 4.45066L33.1458 1.81936L30.2423 0.821289L27.5503 1.60109L26.1491 2.77222L25.603 5.0164L27.8152 8.11907L31.1441 9.60973L34.7507 10.9675L36.7208 12.827L37.3094 14.8548L35.8074 16.3821H34.7507L30.6731 14.7564L26.9305 13.9626L24.7239 14.956L23.3012 15.0061L23.6875 13.0099L22.9836 12.148H21.1689L20.0348 13.1007L18.5445 11.5582L16.2693 10.7869L12.9575 13.3275L11.9594 16.3821L12.2202 18.5901L13.2036 21.2551L14.5297 24.3824L16.2433 24.8108L16.9621 24.3824H18.8136L22.2406 20.527L22.9836 19.6702L24.7239 14.956L26.9305 13.9626L30.6731 14.7564L34.2354 16.6715L38.0909 20.0986C40.7505 18.1581 38.4489 12.3445 38.4489 12.3445Z" fill="#6A462F"/>
<path d="M14.7969 17.0999L17.291 17.3374L17.9568 19.445L17.2166 21.368L16.9875 23.0372L14.1506 23.0973L13.5974 21.0865L12.8162 18.7581L13.5132 17.3374L14.7969 17.0999Z" fill="#FFE1AA"/>
<path d="M36.1812 5.37191C31.7146 -1.96129 26.0628 1.21941 25.6026 3.56681C25.2002 5.61951 25.938 8.07369 32.3811 9.79408C34.7849 10.4359 36.1672 11.7465 36.9589 13.1094C37.9058 14.7395 36.301 16.6695 34.5132 16.0716C31.0761 14.9224 27.7199 12.4175 23.6084 15.4117" stroke="black" stroke-width="1.64214" stroke-miterlimit="10" stroke-linecap="round" stroke-linejoin="round"/>
<path d="M21.2478 19.6961C24.8466 19.888 23.2775 12.6749 23.2775 12.6749C22.911 12.1151 21.5802 11.3589 19.9167 13.5668C19.1596 11.0351 16.2435 10.8984 16.2435 10.8984C15.0746 11.5032 11.5217 13.0829 12.2476 17.4381" stroke="black" stroke-width="1.64214" stroke-miterlimit="10" stroke-linecap="round" stroke-linejoin="round"/>
<path d="M13.083 20.3098C13.083 20.3098 10.8771 17.5525 13.6344 17.0011C16.3917 16.4496 17.4947 17.0011 17.4947 17.0011C17.4947 17.0011 19.7005 17.5525 17.4947 20.3098C17.4947 20.3098 18.3219 22.7914 15.5646 22.7914C12.8073 22.7914 13.083 20.3098 13.083 20.3098Z" stroke="black" stroke-width="1.64214" stroke-miterlimit="10" stroke-linecap="round" stroke-linejoin="round"/>
<path d="M17.8824 28.2724L15.482 32.6497C15.482 32.6497 9.75781 33.9706 7.99656 34.4109C6.66879 34.7429 4.08998 35.5752 2.90078 35.9649C2.38062 36.1354 1.80413 36.1135 1.32651 35.846C0.51106 35.3895 -0.0199891 33.8224 5.5574 32.0612C10.5271 30.4918 14.0864 26.5718 14.3586 23.3507" stroke="black" stroke-width="1.64214" stroke-miterlimit="10" stroke-linecap="round" stroke-linejoin="round"/>
<path d="M24.0444 21.3026C24.0444 21.3026 29.7686 27.0267 28.0073 29.6687C26.7181 31.6026 24.7209 35.1883 23.7431 36.9711C23.3818 37.6297 22.6926 38.0347 21.9415 38.0347H18.2794C16.3773 38.0347 16.2009 35.1705 18.0966 35.0148C18.2182 35.0048 18.3441 34.9992 18.4742 34.9985C19.2803 34.9936 21.4725 34.5584 21.8008 33.8221L24.0444 28.788C24.0444 28.788 21.9431 25.695 19.6412 25.2655" stroke="black" stroke-width="1.64214" stroke-miterlimit="10" stroke-linecap="round" stroke-linejoin="round"/>
<path d="M38.1347 19.9816C38.1347 19.9816 40.3363 24.8252 31.5299 28.7881C31.5299 28.7881 31.6043 32.96 30.5841 36.7954C30.3952 37.5054 29.6877 37.949 28.9628 37.8298L26.5403 37.8491" stroke="black" stroke-width="1.64214" stroke-miterlimit="10" stroke-linecap="round" stroke-linejoin="round"/>
<path d="M33.5571 32.2278C34.283 34.4054 37.9361 35.29 39.3641 35.1313L39.4131 37.1548C39.4364 38.1183 40.2519 38.8717 41.2142 38.8187L41.2233 38.8182C41.9363 38.7789 42.7011 38.3291 42.7662 37.6179C42.9934 35.1313 42.2676 32.2278 42.2676 32.2278C35.2225 30.9069 35.4928 27.0268 35.4928 27.0268" stroke="black" stroke-width="1.64214" stroke-miterlimit="10" stroke-linecap="round" stroke-linejoin="round"/>
<ellipse cx="17.9568" cy="12.9808" rx="6.85415" ry="3.26231" fill="black"/>
<path d="M18.4464 6.81868C21.4206 6.81868 23.8318 9.32879 23.8318 11.5309C23.8318 13.733 21.4206 14.7932 18.4464 14.7932C15.4721 14.7932 12.5714 13.3705 12.5714 11.1684C12.5714 8.96632 15.4721 6.81868 18.4464 6.81868Z" fill="black"/>
<path d="M17.8044 31.5192L17.7893 26.1891L19.4724 26.1997L20.1186 31.5338L18.8992 32.5414L17.8044 31.5192Z" fill="#3F3BC8" stroke="#3F3BC8" stroke-width="0.856768"/>
<path d="M17.1 24.8108L17.7893 26.1891L19.4724 26.1997L19.6703 23.5257L17.7893 24.4662L17.1 24.8108Z" fill="#3F3BC8" stroke="#3F3BC8" stroke-width="0.856768"/>
</svg>
