<svg width="51" height="70" viewBox="0 0 51 70" fill="none" xmlns="http://www.w3.org/2000/svg">
<path d="M46.1651 30.5563L44.748 37.8788C44.748 37.8788 45.3328 39.6229 47.371 39.5512C44.8779 46.3046 43.583 54.9882 43.583 54.9882L40.8576 58.1311L22.6297 67.9131L16.897 68.8182L12.3712 68.5165L7.7068 60.8019L4.0996 51.026L3.14288 42.9263L6.80413 31.7212L18.9528 22.4017L27.2991 25.2309L32.7657 30.8891L36.9262 27.3943H43.583L46.1651 30.5563Z" fill="#6A462F"/>
<path d="M13.5516 45.5595L22.7008 46.4308L25.143 54.162L22.4278 61.2162L21.5874 67.3392L11.1808 67.5597L9.15165 60.1836L6.28571 51.642L8.84251 46.4308L13.5516 45.5595Z" fill="#FFE1AA"/>
<path d="M37.2154 55.0832C50.4172 55.7869 44.6611 29.3272 44.6611 29.3272C43.3165 27.2737 38.4349 24.4999 32.3327 32.5991C29.5552 23.3118 18.8583 22.8104 18.8583 22.8104C14.5702 25.0292 1.53724 30.8239 4.19996 46.8002" stroke="black" stroke-width="6.02387" stroke-miterlimit="10" stroke-linecap="round" stroke-linejoin="round"/>
<path d="M7.26455 57.3344C7.26455 57.3344 -0.827213 47.2198 9.28742 45.1969C19.402 43.174 23.4481 45.1969 23.4481 45.1969C23.4481 45.1969 31.5398 47.2198 23.4481 57.3344C23.4481 57.3344 26.4825 66.4377 16.3679 66.4377C6.25325 66.4377 7.26455 57.3344 7.26455 57.3344Z" stroke="black" stroke-width="6.02387" stroke-miterlimit="10" stroke-linecap="round" stroke-linejoin="round"/>
<ellipse cx="25.1431" cy="24.6395" rx="25.1431" ry="11.9672" fill="black"/>
<path d="M26.8401 -7.62939e-06C37.6787 -7.62939e-06 46.4652 6.64804 46.4652 12.4803C46.4652 18.3126 37.6787 21.1205 26.8401 21.1205C16.0015 21.1205 5.43097 17.3526 5.43097 11.5203C5.43097 5.68801 16.0015 -7.62939e-06 26.8401 -7.62939e-06Z" fill="black"/>
<rect x="5.43097" y="11.4654" width="40.4308" height="10.862" fill="black"/>
</svg>
